Coordinates
version=1
nRows=16
nColumns=40
inDegrees=yes

Units are S.I. units (second, meters, Newtons, ...)
Angles are in degrees.

endheader
time	pelvis_tilt	pelvis_list	pelvis_rotation	pelvis_tx	pelvis_ty	pelvis_tz	hip_flexion_r	hip_adduction_r	hip_rotation_r	knee_angle_r	knee_angle_r_beta	ankle_angle_r	subtalar_angle_r	mtp_angle_r	hip_flexion_l	hip_adduction_l	hip_rotation_l	knee_angle_l	knee_angle_l_beta	ankle_angle_l	subtalar_angle_l	mtp_angle_l	lumbar_extension	lumbar_bending	lumbar_rotation	arm_flex_r	arm_add_r	arm_rot_r	elbow_flex_r	pro_sup_r	wrist_flex_r	wrist_dev_r	arm_flex_l	arm_add_l	arm_rot_l	elbow_flex_l	pro_sup_l	wrist_flex_l	wrist_dev_l
     36.51000000	     -1.49608833	     -5.34835836	      2.95880107	      0.94300408	      0.93532310	      0.49672314	      6.80212674	      5.21315203	    -19.39429849	     13.56337180	     13.56337180	     11.27362829	      4.28675664	     -3.56992620	     29.99540144	    -13.94085534	     -1.65190694	     57.78411806	     57.78411806	     11.02608326	    -18.56891135	     13.69689755	     -8.01952465	      6.97326309	      4.38113752	     18.88192356	    -15.20263597	     -6.24832237	     37.18882293	     43.80216047	      0.00000000	      0.00000000	      8.04834460	     -6.83323803	     -0.02680268	     26.22975351	     43.46157025	      0.00000000	      0.00000000
     36.52157143	     -1.66454261	     -5.29534255	      3.12246316	      0.94172218	      0.93520693	      0.49673845	      6.29180793	      5.29820271	    -19.28127788	     13.01694897	     13.01694897	     11.41256308	      4.16957215	     -3.56229866	     30.96823129	    -13.69548901	     -1.77025290	     55.16332888	     55.16332888	     11.16006309	    -18.56495744	     13.81612022	     -7.96063666	      6.88543470	      4.46393412	     20.64260568	    -15.46556682	     -6.37442706	     38.36363993	     43.80250553	      0.00000000	      0.00000000	      6.59613244	     -6.71538646	      0.13108440	     25.62849703	     43.44289614	      0.00000000	      0.00000000
     36.53314286	     -1.80879137	     -5.22561245	      3.26097317	      0.94048198	      0.93509064	      0.49668454	      5.76573600	      5.34731080	    -19.18909686	     12.49673535	     12.49673535	     11.53885329	      4.17502190	     -3.62493672	     31.67683053	    -13.37232446	     -1.89209208	     52.22594560	     52.22594560	     11.17200712	    -18.49346212	     13.88330787	     -7.94975490	      6.80974325	      4.56897269	     22.43497694	    -15.77056799	     -6.47926117	     39.63003112	     43.79627728	      0.00000000	      0.00000000	      5.13265582	     -6.58220117	      0.32228386	     25.05407592	     43.41498082	      0.00000000	      0.00000000
     36.54471429	     -1.92653753	     -5.24352248	      3.42002012	      0.93927975	      0.93484357	      0.49657820	      5.18451664	      5.49805526	    -19.18429095	     11.89934313	     11.89934313	     11.58851034	      4.27358388	     -3.86961783	     32.22060820	    -13.09361617	     -1.93850660	     49.08882767	     49.08882767	     10.97837329	    -18.32167160	     13.56022118	     -7.98139469	      6.83145536	      4.51446414	     24.13873044	    -16.02164723	     -6.50016797	     41.35276988	     43.79545655	      0.00000000	      0.00000000	      3.59792211	     -6.50430447	      0.75285522	     24.58649951	     43.37234014	      0.00000000	      0.00000000
     36.55628571	     -2.07270033	     -5.15658464	      3.53763085	      0.93807060	      0.93454133	      0.49638193	      4.72524593	      5.49093560	    -19.13352937	     11.49810156	     11.49810156	     11.74587044	      4.30614898	     -4.00821612	     32.59733477	    -12.63564511	     -1.97469137	     45.75183740	     45.75183740	     10.83487237	    -18.08201778	     13.71228058	     -7.98516757	      6.71408377	      4.74439330	     25.74320991	    -16.41543159	     -6.58459290	     42.52765289	     43.79039992	      0.00000000	      0.00000000	      2.25919735	     -6.37831565	      0.98439609	     24.13794472	     43.33611224	      0.00000000	      0.00000000
     36.56785714	     -2.22072133	     -5.13887381	      3.66632110	      0.93687323	      0.93408808	      0.49606700	      4.25118073	      5.55579671	    -19.15829445	     11.04539652	     11.04539652	     11.87737568	      4.44753019	     -4.18317657	     32.91174724	    -12.19144133	     -1.88038416	     42.37603831	     42.37603831	     10.62921012	    -17.67892201	     13.73807649	     -7.99564657	      6.69184691	      4.78284517	     27.38261062	    -16.70313681	     -6.67362462	     43.93712343	     43.77955009	      0.00000000	      0.00000000	      0.86119468	     -6.25103755	      1.27157783	     23.70299693	     43.29024401	      0.00000000	      0.00000000
     36.57942857	     -2.35602791	     -5.10700037	      3.79580341	      0.93574378	      0.93358252	      0.49561806	      3.76617756	      5.59189707	    -19.24173191	     10.61051835	     10.61051835	     12.05259965	      4.61441061	     -4.38233300	     33.11441258	    -11.72667881	     -1.81826789	     38.95576806	     38.95576806	     10.41380850	    -17.02295569	     13.69512705	     -8.00182850	      6.69318623	      4.81716240	     28.90800280	    -16.90436675	     -6.76327957	     45.40256249	     43.76528787	      0.00000000	      0.00000000	     -0.52799134	     -6.19758926	      1.55368680	     23.33313762	     43.24289198	      0.00000000	      0.00000000
     36.59100000	     -2.53858032	     -5.17159792	      3.91631356	      0.93454829	      0.93288754	      0.49514767	      3.38064457	      5.70628096	    -19.33159273	     10.25272093	     10.25272093	     12.21323021	      4.85335563	     -4.58809408	     33.38088573	    -11.35699542	     -1.68084847	     35.65188469	     35.65188469	     10.19903288	    -16.00957415	     13.59728429	     -7.98165802	      6.72870135	      4.88196498	     30.38301160	    -17.19838079	     -6.89092637	     46.83941874	     43.74993711	      0.00000000	      0.00000000	     -1.87293249	     -6.07528692	      1.81818015	     23.02999991	     43.19353343	      0.00000000	      0.00000000
     36.60257143	     -2.69693059	     -5.27130692	      4.05700751	      0.93347432	      0.93204445	      0.49450890	      2.92758765	      5.85028774	    -19.59341378	      9.81839815	      9.81839815	     12.25602636	      5.30835397	     -5.23213171	     33.49513664	    -11.02651196	     -1.60876347	     32.25049227	     32.25049227	      9.09788903	    -15.00031379	     11.11071122	     -8.02764427	      6.85238585	      5.20894605	     31.01702787	    -17.83005138	     -7.03574642	     50.18536014	     43.80205418	      0.00000000	      0.00000000	     -3.41520587	     -6.17271025	      3.49405059	     23.80248446	     43.02199098	      0.00000000	      0.00000000
     36.61414286	     -2.88025270	     -5.33372440	      4.17721120	      0.93239421	      0.93125034	      0.49383069	      2.53877620	      5.96001075	    -19.62731715	      9.46604137	      9.46604137	     12.47131735	      5.44854915	     -5.29047410	     33.69226309	    -10.68142008	     -1.62537557	     29.23251023	     29.23251023	      9.04990119	    -13.42796106	     11.41284124	     -7.97806473	      6.90500427	      5.17631542	     32.55137623	    -17.95164651	     -7.20095459	     51.22294514	     43.80128953	      0.00000000	      0.00000000	     -4.63031267	     -6.05638002	      3.75942669	     23.30962667	     42.98086386	      0.00000000	      0.00000000
     36.62571429	     -3.00670947	     -5.47957061	      4.33219960	      0.93146364	      0.93042415	      0.49304094	      2.02198496	      6.17043961	    -19.83136647	      8.99698347	      8.99698347	     12.65686408	      5.83563874	     -5.34203743	     33.88272817	    -10.46636798	     -1.80792822	     26.54731706	     26.54731706	      8.93950815	    -11.59114951	     11.45622488	     -7.99847660	      7.07569519	      4.98634171	     33.96199271	    -17.90708239	     -7.43818638	     52.85566758	     43.80058544	      0.00000000	      0.00000000	     -5.96748377	     -5.96380477	      4.17802583	     23.07796001	     42.92984265	      0.00000000	      0.00000000
     36.63728571	     -3.17752292	     -5.53187047	      4.45476776	      0.93059441	      0.92957191	      0.49215512	      1.59359901	      6.25548945	    -19.90525049	      8.64309213	      8.64309213	     12.91214683	      6.06404046	     -5.39930198	     34.03087534	    -10.14461658	     -2.09095936	     24.06569059	     24.06569059	      8.77693358	     -9.91489497	     11.69100580	     -7.93098453	      7.09857144	      4.96840752	     35.19928711	    -18.02506923	     -7.64806661	     54.12542583	     43.79283436	      0.00000000	      0.00000000	     -7.13523204	     -5.86672392	      4.40381013	     22.84942776	     42.89540754	      0.00000000	      0.00000000
     36.64885714	     -3.29057657	     -5.71176754	      4.60644054	      0.92990224	      0.92866862	      0.49118288	      1.03457590	      6.49692700	    -20.12431454	      8.15905356	      8.15905356	     13.13694063	      6.55214000	     -5.37414800	     34.25159735	    -10.01499800	     -2.59910246	     22.16674313	     22.16674313	      8.60086141	     -8.08113569	     11.66485724	     -7.92788505	      7.30177453	      4.85487305	     36.18488828	    -18.01973897	     -8.03683698	     56.30366491	     43.79336109	      0.00000000	      0.00000000	     -8.41957251	     -5.81039005	      4.91348987	     22.99223805	     42.84799542	      0.00000000	      0.00000000
     36.66042857	     -3.52971172	     -5.88252254	      4.71474420	      0.92918392	      0.92748080	      0.49007933	      0.76984137	      6.66498483	    -20.13380556	      7.98789145	      7.98789145	     13.42413302	      6.60217838	     -5.44447517	     34.67366859	     -9.78672220	     -2.82794182	     20.80369125	     20.80369125	      8.32509486	     -7.25090599	     11.93750155	     -7.72498362	      7.45971810	      5.05848972	     37.40733028	    -18.48350644	     -8.24820593	     57.00365653	     43.79037566	      0.00000000	      0.00000000	     -9.39177534	     -5.68444171	      4.98184572	     22.70603193	     42.82771623	      0.00000000	      0.00000000
     36.67200000	     -3.53272276	     -5.80852761	      4.81592262	      0.92895185	      0.92691605	      0.48890706	      0.00688380	      6.64813196	    -20.24357129	      7.45100396	      7.45100396	     13.69068637	      6.99730199	     -5.31644746	     34.48727818	     -9.46438319	     -3.74222872	     19.45737751	     19.45737751	      8.20212224	     -5.81982301	     12.05696860	     -7.84238300	      7.33754929	      4.61663568	     38.33443879	    -17.88379290	     -8.50354567	     59.06004546	     43.76493916	      0.00000000	      0.00000000	    -10.51318390	     -5.57423037	      5.31594381	     22.57536783	     42.78934967	      0.00000000	      0.00000000
     36.68357143	     -3.64856532	     -5.92507819	      4.89290785	      0.92870782	      0.92594101	      0.48767671	     -0.49154688	      6.77118018	    -20.30796606	      7.17297436	      7.17297436	     14.07477822	      7.36242425	     -5.10177930	     34.67065913	     -9.32085942	     -4.42532505	     18.94425883	     18.94425883	      7.87180584	     -5.12407393	     12.07048609	     -7.75480265	      7.44687107	      4.62747890	     38.92569720	    -17.94046594	     -9.03254567	     61.11611612	     43.77002562	      0.00000000	      0.00000000	    -11.52085227	     -5.56314757	      5.79250476	     22.71049538	     42.75265819	      0.00000000	      0.00000000
